{"title":"Saving.Emily.2004.SWESUB.DVDRip.XviD.AC3.(5.1)-Zen_Bud","uid":5716685,"size":1471082796,"categoryP":"video","categoryS":"movies","magnet":"?xt=urn:btih:a43fc7def51aa72e49fdc4b85ae928d49ada7cf8&amp;dn=Saving.Emily.2004.SWESUB.DVDRip.XviD.AC3.%285.1%29-Zen_Bud&amp;tr=udp%3A%2F%2Ftracker.openbittorrent.com%3A80&amp;tr=udp%3A%2F%2Fopen.demonii.com%3A1337&amp;tr=udp%3A%2F%2Ftracker.coppersurfer.tk%3A6969&amp;tr=udp%3A%2F%2Fexodus.desync.com%3A6969","seeders":0,"leechers":2,"uploader":null,"files":1,"time":1280131896,"description":"General\nComplete name                    : Saving.Emily.2004.avi\nFormat                           : AVI\nFile size                        : 1.37 GiB\nDuration                         : 1h 33mn\nOverall bit rate                 : 2 105 Kbps\n\nVideo\n\nFormat                           : MPEG-4 Visual\nCodec ID/Hint                    : XviD\nDuration                         : 1h 33mn\nBit rate                         : 1 646 Kbps\nWidth                            : 720 pixels\nHeight                           : 576 pixels\nDisplay aspect ratio             : 16:9\nStream size                      : 1.07 GiB (78%)\nWriting library                  : XviD 1.1.2 (UTC 2006-11-01)\n\nAudio\n\nFormat                           : AC-3\nDuration                         : 1h 33mn\nBit rate                         : 448 Kbps\nChannel(s)                       : 6 channels\nChannel positions                : Front: L C R, Side: L R, LFE\nSampling rate                    : 48.0 KHz\nStream size                      : 299 MiB (21%)","torrent":{"xt":"urn:btih:a43fc7def51aa72e49fdc4b85ae928d49ada7cf8","amp;dn":"Saving.Emily.2004.SWESUB.DVDRip.XviD.AC3.%285.1%29-Zen_Bud","amp;tr":["udp%3A%2F%2Ftracker.openbittorrent.com%3A80","udp%3A%2F%2Fopen.demonii.com%3A1337","udp%3A%2F%2Ftracker.coppersurfer.tk%3A6969","udp%3A%2F%2Fexodus.desync.com%3A6969"],"infoHash":"a43fc7def51aa72e49fdc4b85ae928d49ada7cf8","infoHashBuffer":{"type":"Buffer","data":[164,63,199,222,245,26,167,46,73,253,196,184,90,233,40,212,154,218,124,248]},"announce":[],"urlList":[]}}